solid Exported from Blender-2.82 (sub 7)
facet normal -0.881922 -0.471396 0.000000
outer loop
vertex -0.016713 -0.011167 -0.070000
vertex -0.016713 -0.011167 -0.066040
vertex -0.018570 -0.007692 -0.066040
endloop
endfacet
facet normal -0.881922 -0.471396 0.000000
outer loop
vertex -0.016713 -0.011167 -0.070000
vertex -0.018570 -0.007692 -0.066040
vertex -0.018570 -0.007692 -0.070000
endloop
endfacet
facet normal -0.773010 -0.634393 0.000000
outer loop
vertex -0.014213 -0.014213 -0.070000
vertex -0.014213 -0.014213 -0.066040
vertex -0.016713 -0.011167 -0.066040
endloop
endfacet
facet normal -0.773011 -0.634393 0.000000
outer loop
vertex -0.014213 -0.014213 -0.070000
vertex -0.016713 -0.011167 -0.066040
vertex -0.016713 -0.011167 -0.070000
endloop
endfacet
facet normal -0.956941 -0.290284 0.000000
outer loop
vertex -0.018570 -0.007692 -0.070000
vertex -0.018570 -0.007692 -0.066040
vertex -0.019714 -0.003921 -0.066040
endloop
endfacet
facet normal -0.956941 -0.290283 0.000000
outer loop
vertex -0.018570 -0.007692 -0.070000
vertex -0.019714 -0.003921 -0.066040
vertex -0.019714 -0.003921 -0.070000
endloop
endfacet
facet normal -0.995185 -0.098017 0.000000
outer loop
vertex -0.019714 -0.003921 -0.070000
vertex -0.019714 -0.003921 -0.066040
vertex -0.020100 0.000000 -0.066040
endloop
endfacet
facet normal -0.995185 -0.098016 0.000000
outer loop
vertex -0.019714 -0.003921 -0.070000
vertex -0.020100 0.000000 -0.066040
vertex -0.020100 0.000000 -0.070000
endloop
endfacet
facet normal -0.995185 0.098018 0.000000
outer loop
vertex -0.020100 0.000000 -0.070000
vertex -0.020100 0.000000 -0.066040
vertex -0.019714 0.003921 -0.066040
endloop
endfacet
facet normal -0.995185 0.098018 0.000000
outer loop
vertex -0.020100 0.000000 -0.070000
vertex -0.019714 0.003921 -0.066040
vertex -0.019714 0.003921 -0.070000
endloop
endfacet
facet normal -0.956940 0.290286 0.000000
outer loop
vertex -0.019714 0.003921 -0.070000
vertex -0.019714 0.003921 -0.066040
vertex -0.018570 0.007692 -0.066040
endloop
endfacet
facet normal -0.956940 0.290286 0.000000
outer loop
vertex -0.019714 0.003921 -0.070000
vertex -0.018570 0.007692 -0.066040
vertex -0.018570 0.007692 -0.070000
endloop
endfacet
facet normal -0.881920 0.471399 0.000000
outer loop
vertex -0.018570 0.007692 -0.070000
vertex -0.018570 0.007692 -0.066040
vertex -0.016713 0.011167 -0.066040
endloop
endfacet
facet normal -0.881921 0.471397 0.000000
outer loop
vertex -0.018570 0.007692 -0.070000
vertex -0.016713 0.011167 -0.066040
vertex -0.016713 0.011167 -0.070000
endloop
endfacet
facet normal -0.773010 0.634394 0.000000
outer loop
vertex -0.016713 0.011167 -0.070000
vertex -0.016713 0.011167 -0.066040
vertex -0.014213 0.014213 -0.066040
endloop
endfacet
facet normal -0.773010 0.634394 0.000000
outer loop
vertex -0.016713 0.011167 -0.070000
vertex -0.014213 0.014213 -0.066040
vertex -0.014213 0.014213 -0.070000
endloop
endfacet
facet normal -0.634392 0.773011 0.000000
outer loop
vertex -0.014213 0.014213 -0.070000
vertex -0.014213 0.014213 -0.066040
vertex -0.011167 0.016713 -0.066040
endloop
endfacet
facet normal -0.634393 0.773011 0.000000
outer loop
vertex -0.014213 0.014213 -0.070000
vertex -0.011167 0.016713 -0.066040
vertex -0.011167 0.016713 -0.070000
endloop
endfacet
facet normal -0.471395 0.881922 0.000000
outer loop
vertex -0.011167 0.016713 -0.066040
vertex -0.011167 0.016713 -0.033960
vertex -0.007692 0.018570 -0.033960
endloop
endfacet
facet normal -0.471395 0.881922 0.000000
outer loop
vertex -0.011167 0.016713 -0.066040
vertex -0.007692 0.018570 -0.033960
vertex -0.007692 0.018570 -0.066040
endloop
endfacet
facet normal -0.634392 0.773011 0.000000
outer loop
vertex -0.014213 0.014213 -0.066040
vertex -0.014213 0.014213 -0.033960
vertex -0.011167 0.016713 -0.033960
endloop
endfacet
facet normal -0.634392 0.773011 0.000000
outer loop
vertex -0.014213 0.014213 -0.066040
vertex -0.011167 0.016713 -0.033960
vertex -0.011167 0.016713 -0.066040
endloop
endfacet
facet normal -0.773010 0.634394 0.000000
outer loop
vertex -0.016713 0.011167 -0.066040
vertex -0.016713 0.011167 -0.033960
vertex -0.014213 0.014213 -0.033960
endloop
endfacet
facet normal -0.773010 0.634394 0.000000
outer loop
vertex -0.016713 0.011167 -0.066040
vertex -0.014213 0.014213 -0.033960
vertex -0.014213 0.014213 -0.066040
endloop
endfacet
facet normal -0.881921 0.471398 0.000000
outer loop
vertex -0.018570 0.007692 -0.066040
vertex -0.018570 0.007692 -0.033960
vertex -0.016713 0.011167 -0.033960
endloop
endfacet
facet normal -0.881921 0.471397 0.000000
outer loop
vertex -0.018570 0.007692 -0.066040
vertex -0.016713 0.011167 -0.033960
vertex -0.016713 0.011167 -0.066040
endloop
endfacet
facet normal -0.956940 0.290286 0.000000
outer loop
vertex -0.019714 0.003921 -0.066040
vertex -0.019714 0.003921 -0.033960
vertex -0.018570 0.007692 -0.033960
endloop
endfacet
facet normal -0.956940 0.290286 0.000000
outer loop
vertex -0.019714 0.003921 -0.066040
vertex -0.018570 0.007692 -0.033960
vertex -0.018570 0.007692 -0.066040
endloop
endfacet
facet normal -0.000000 0.000000 1.000000
outer loop
vertex -0.019714 -0.003921 -0.033960
vertex -0.020100 0.000000 -0.033960
vertex -0.095100 0.000000 -0.033960
endloop
endfacet
facet normal 0.000000 0.000000 1.000000
outer loop
vertex -0.019714 -0.003921 -0.033960
vertex -0.095100 0.000000 -0.033960
vertex -0.094714 -0.003921 -0.033960
endloop
endfacet
facet normal -0.000001 -1.000000 0.000000
outer loop
vertex -0.019714 -0.003921 -0.066040
vertex -0.019714 -0.003921 -0.033960
vertex -0.094714 -0.003921 -0.033960
endloop
endfacet
facet normal -0.000001 -1.000000 0.000000
outer loop
vertex -0.019714 -0.003921 -0.066040
vertex -0.094714 -0.003921 -0.033960
vertex -0.094714 -0.003921 -0.066040
endloop
endfacet
facet normal -0.956941 -0.290284 0.000000
outer loop
vertex -0.018570 -0.007692 -0.066040
vertex -0.018570 -0.007692 -0.033960
vertex -0.019714 -0.003921 -0.033960
endloop
endfacet
facet normal -0.956941 -0.290284 0.000000
outer loop
vertex -0.018570 -0.007692 -0.066040
vertex -0.019714 -0.003921 -0.033960
vertex -0.019714 -0.003921 -0.066040
endloop
endfacet
facet normal -0.773011 -0.634393 0.000000
outer loop
vertex -0.014213 -0.014213 -0.066040
vertex -0.014213 -0.014213 -0.033960
vertex -0.016713 -0.011167 -0.033960
endloop
endfacet
facet normal -0.773011 -0.634393 0.000000
outer loop
vertex -0.014213 -0.014213 -0.066040
vertex -0.016713 -0.011167 -0.033960
vertex -0.016713 -0.011167 -0.066040
endloop
endfacet
facet normal -0.881922 -0.471396 0.000000
outer loop
vertex -0.016713 -0.011167 -0.066040
vertex -0.016713 -0.011167 -0.033960
vertex -0.018570 -0.007692 -0.033960
endloop
endfacet
facet normal -0.881921 -0.471396 0.000000
outer loop
vertex -0.016713 -0.011167 -0.066040
vertex -0.018570 -0.007692 -0.033960
vertex -0.018570 -0.007692 -0.066040
endloop
endfacet
facet normal -0.290285 -0.956940 0.000000
outer loop
vertex -0.003921 -0.019714 -0.066040
vertex -0.003921 -0.019714 -0.033960
vertex -0.007692 -0.018570 -0.033960
endloop
endfacet
facet normal -0.290285 -0.956940 0.000000
outer loop
vertex -0.003921 -0.019714 -0.066040
vertex -0.007692 -0.018570 -0.033960
vertex -0.007692 -0.018570 -0.066040
endloop
endfacet
facet normal 1.000000 -0.000000 0.000000
outer loop
vertex 0.003921 -0.019714 -0.066040
vertex 0.003921 -0.019714 -0.033960
vertex 0.003921 -0.094714 -0.033960
endloop
endfacet
facet normal 1.000000 -0.000000 0.000000
outer loop
vertex 0.003921 -0.019714 -0.066040
vertex 0.003921 -0.094714 -0.033960
vertex 0.003921 -0.094714 -0.066040
endloop
endfacet
facet normal -1.000000 0.000000 0.000000
outer loop
vertex -0.003921 -0.019714 -0.033960
vertex -0.003921 -0.019714 -0.066040
vertex -0.003921 -0.094714 -0.066040
endloop
endfacet
facet normal -1.000000 0.000000 0.000000
outer loop
vertex -0.003921 -0.019714 -0.033960
vertex -0.003921 -0.094714 -0.066040
vertex -0.003921 -0.094714 -0.033960
endloop
endfacet
facet normal 0.290284 -0.956940 0.000000
outer loop
vertex 0.007692 -0.018570 -0.066040
vertex 0.007692 -0.018570 -0.033960
vertex 0.003921 -0.019714 -0.033960
endloop
endfacet
facet normal 0.290284 -0.956940 0.000000
outer loop
vertex 0.007692 -0.018570 -0.066040
vertex 0.003921 -0.019714 -0.033960
vertex 0.003921 -0.019714 -0.066040
endloop
endfacet
facet normal 0.471397 -0.881921 0.000000
outer loop
vertex 0.011167 -0.016713 -0.066040
vertex 0.011167 -0.016713 -0.033960
vertex 0.007692 -0.018570 -0.033960
endloop
endfacet
facet normal 0.471397 -0.881921 0.000000
outer loop
vertex 0.011167 -0.016713 -0.066040
vertex 0.007692 -0.018570 -0.033960
vertex 0.007692 -0.018570 -0.066040
endloop
endfacet
facet normal 0.634393 -0.773010 0.000000
outer loop
vertex 0.014213 -0.014213 -0.066040
vertex 0.014213 -0.014213 -0.033960
vertex 0.011167 -0.016713 -0.033960
endloop
endfacet
facet normal 0.634393 -0.773011 0.000000
outer loop
vertex 0.014213 -0.014213 -0.066040
vertex 0.011167 -0.016713 -0.033960
vertex 0.011167 -0.016713 -0.066040
endloop
endfacet
facet normal 0.773011 -0.634393 0.000000
outer loop
vertex 0.016713 -0.011167 -0.066040
vertex 0.016713 -0.011167 -0.033960
vertex 0.014213 -0.014213 -0.033960
endloop
endfacet
facet normal 0.773010 -0.634393 0.000000
outer loop
vertex 0.016713 -0.011167 -0.066040
vertex 0.014213 -0.014213 -0.033960
vertex 0.014213 -0.014213 -0.066040
endloop
endfacet
facet normal 0.881921 -0.471397 0.000000
outer loop
vertex 0.018570 -0.007692 -0.066040
vertex 0.018570 -0.007692 -0.033960
vertex 0.016713 -0.011167 -0.033960
endloop
endfacet
facet normal 0.881921 -0.471397 0.000000
outer loop
vertex 0.018570 -0.007692 -0.066040
vertex 0.016713 -0.011167 -0.033960
vertex 0.016713 -0.011167 -0.066040
endloop
endfacet
facet normal 0.000000 0.000000 -1.000000
outer loop
vertex 0.019714 -0.003921 -0.066040
vertex 0.020100 0.000000 -0.066040
vertex 0.095100 0.000000 -0.066040
endloop
endfacet
facet normal 0.000000 0.000000 -1.000000
outer loop
vertex 0.019714 -0.003921 -0.066040
vertex 0.095100 0.000000 -0.066040
vertex 0.094714 -0.003921 -0.066040
endloop
endfacet
facet normal 0.956940 -0.290284 0.000000
outer loop
vertex 0.019714 -0.003921 -0.066040
vertex 0.019714 -0.003921 -0.033960
vertex 0.018570 -0.007692 -0.033960
endloop
endfacet
facet normal 0.956940 -0.290285 0.000000
outer loop
vertex 0.019714 -0.003921 -0.066040
vertex 0.018570 -0.007692 -0.033960
vertex 0.018570 -0.007692 -0.066040
endloop
endfacet
facet normal -0.098017 -0.995185 0.000000
outer loop
vertex -0.000000 -0.020100 -0.070000
vertex -0.000000 -0.020100 -0.066040
vertex -0.003921 -0.019714 -0.066040
endloop
endfacet
facet normal -0.098017 -0.995185 0.000000
outer loop
vertex -0.000000 -0.020100 -0.070000
vertex -0.003921 -0.019714 -0.066040
vertex -0.003921 -0.019714 -0.070000
endloop
endfacet
facet normal 0.290284 -0.956941 0.000000
outer loop
vertex 0.007692 -0.018570 -0.070000
vertex 0.007692 -0.018570 -0.066040
vertex 0.003921 -0.019714 -0.066040
endloop
endfacet
facet normal 0.290284 -0.956941 0.000000
outer loop
vertex 0.007692 -0.018570 -0.070000
vertex 0.003921 -0.019714 -0.066040
vertex 0.003921 -0.019714 -0.070000
endloop
endfacet
facet normal -0.290285 -0.956940 0.000000
outer loop
vertex -0.003921 -0.019714 -0.070000
vertex -0.003921 -0.019714 -0.066040
vertex -0.007692 -0.018570 -0.066040
endloop
endfacet
facet normal -0.290286 -0.956940 0.000000
outer loop
vertex -0.003921 -0.019714 -0.070000
vertex -0.007692 -0.018570 -0.066040
vertex -0.007692 -0.018570 -0.070000
endloop
endfacet
facet normal 0.098017 -0.995185 0.000000
outer loop
vertex 0.003921 -0.019714 -0.070000
vertex 0.003921 -0.019714 -0.066040
vertex -0.000000 -0.020100 -0.066040
endloop
endfacet
facet normal 0.098017 -0.995185 0.000000
outer loop
vertex 0.003921 -0.019714 -0.070000
vertex -0.000000 -0.020100 -0.066040
vertex -0.000000 -0.020100 -0.070000
endloop
endfacet
facet normal 0.995185 -0.098016 0.000000
outer loop
vertex 0.020100 0.000000 -0.070000
vertex 0.020100 0.000000 -0.066040
vertex 0.019714 -0.003921 -0.066040
endloop
endfacet
facet normal 0.995185 -0.098018 0.000000
outer loop
vertex 0.020100 0.000000 -0.070000
vertex 0.019714 -0.003921 -0.066040
vertex 0.019714 -0.003921 -0.070000
endloop
endfacet
facet normal 0.956941 -0.290284 0.000000
outer loop
vertex 0.019714 -0.003921 -0.070000
vertex 0.019714 -0.003921 -0.066040
vertex 0.018570 -0.007692 -0.066040
endloop
endfacet
facet normal 0.956940 -0.290285 0.000000
outer loop
vertex 0.019714 -0.003921 -0.070000
vertex 0.018570 -0.007692 -0.066040
vertex 0.018570 -0.007692 -0.070000
endloop
endfacet
facet normal 0.098017 0.995185 0.000000
outer loop
vertex 0.000000 0.020100 -0.070000
vertex 0.000000 0.020100 -0.066040
vertex 0.003921 0.019714 -0.066040
endloop
endfacet
facet normal 0.098017 0.995185 0.000000
outer loop
vertex 0.000000 0.020100 -0.070000
vertex 0.003921 0.019714 -0.066040
vertex 0.003921 0.019714 -0.070000
endloop
endfacet
facet normal 0.290285 0.956940 0.000000
outer loop
vertex 0.003921 0.019714 -0.070000
vertex 0.003921 0.019714 -0.066040
vertex 0.007692 0.018570 -0.066040
endloop
endfacet
facet normal 0.290284 0.956941 0.000000
outer loop
vertex 0.003921 0.019714 -0.070000
vertex 0.007692 0.018570 -0.066040
vertex 0.007692 0.018570 -0.070000
endloop
endfacet
facet normal 0.471398 0.881921 0.000000
outer loop
vertex 0.007692 0.018570 -0.070000
vertex 0.007692 0.018570 -0.066040
vertex 0.011167 0.016713 -0.066040
endloop
endfacet
facet normal 0.471397 0.881921 0.000000
outer loop
vertex 0.007692 0.018570 -0.070000
vertex 0.011167 0.016713 -0.066040
vertex 0.011167 0.016713 -0.070000
endloop
endfacet
facet normal 0.634392 0.773011 0.000000
outer loop
vertex 0.011167 0.016713 -0.070000
vertex 0.011167 0.016713 -0.066040
vertex 0.014213 0.014213 -0.066040
endloop
endfacet
facet normal 0.634394 0.773010 0.000000
outer loop
vertex 0.011167 0.016713 -0.070000
vertex 0.014213 0.014213 -0.066040
vertex 0.014213 0.014213 -0.070000
endloop
endfacet
facet normal 0.773011 0.634393 0.000000
outer loop
vertex 0.014213 0.014213 -0.070000
vertex 0.014213 0.014213 -0.066040
vertex 0.016713 0.011167 -0.066040
endloop
endfacet
facet normal 0.773010 0.634394 0.000000
outer loop
vertex 0.014213 0.014213 -0.070000
vertex 0.016713 0.011167 -0.066040
vertex 0.016713 0.011167 -0.070000
endloop
endfacet
facet normal 0.881921 0.471397 0.000000
outer loop
vertex 0.016713 0.011167 -0.070000
vertex 0.016713 0.011167 -0.066040
vertex 0.018570 0.007692 -0.066040
endloop
endfacet
facet normal 0.881922 0.471396 0.000000
outer loop
vertex 0.016713 0.011167 -0.070000
vertex 0.018570 0.007692 -0.066040
vertex 0.018570 0.007692 -0.070000
endloop
endfacet
facet normal 0.956940 0.290285 0.000000
outer loop
vertex 0.018570 0.007692 -0.070000
vertex 0.018570 0.007692 -0.066040
vertex 0.019714 0.003921 -0.066040
endloop
endfacet
facet normal 0.956941 0.290284 0.000000
outer loop
vertex 0.018570 0.007692 -0.070000
vertex 0.019714 0.003921 -0.066040
vertex 0.019714 0.003921 -0.070000
endloop
endfacet
facet normal 0.995185 0.098018 0.000000
outer loop
vertex 0.019714 0.003921 -0.070000
vertex 0.019714 0.003921 -0.066040
vertex 0.020100 0.000000 -0.066040
endloop
endfacet
facet normal 0.995185 0.098016 0.000000
outer loop
vertex 0.019714 0.003921 -0.070000
vertex 0.020100 0.000000 -0.066040
vertex 0.020100 0.000000 -0.070000
endloop
endfacet
facet normal -0.634394 -0.773010 0.000000
outer loop
vertex -0.011167 -0.016713 -0.070000
vertex -0.011167 -0.016713 -0.066040
vertex -0.014213 -0.014213 -0.066040
endloop
endfacet
facet normal -0.634394 -0.773010 0.000000
outer loop
vertex -0.011167 -0.016713 -0.070000
vertex -0.014213 -0.014213 -0.066040
vertex -0.014213 -0.014213 -0.070000
endloop
endfacet
facet normal -0.471397 -0.881921 0.000000
outer loop
vertex -0.007692 -0.018570 -0.070000
vertex -0.007692 -0.018570 -0.066040
vertex -0.011167 -0.016713 -0.066040
endloop
endfacet
facet normal -0.471397 -0.881921 0.000000
outer loop
vertex -0.007692 -0.018570 -0.070000
vertex -0.011167 -0.016713 -0.066040
vertex -0.011167 -0.016713 -0.070000
endloop
endfacet
facet normal -0.290283 0.956941 0.000000
outer loop
vertex -0.007692 0.018570 -0.070000
vertex -0.007692 0.018570 -0.066040
vertex -0.003921 0.019714 -0.066040
endloop
endfacet
facet normal -0.290284 0.956941 0.000000
outer loop
vertex -0.007692 0.018570 -0.070000
vertex -0.003921 0.019714 -0.066040
vertex -0.003921 0.019714 -0.070000
endloop
endfacet
facet normal -0.098016 0.995185 0.000000
outer loop
vertex -0.003921 0.019714 -0.070000
vertex -0.003921 0.019714 -0.066040
vertex 0.000000 0.020100 -0.066040
endloop
endfacet
facet normal -0.098016 0.995185 0.000000
outer loop
vertex -0.003921 0.019714 -0.070000
vertex 0.000000 0.020100 -0.066040
vertex 0.000000 0.020100 -0.070000
endloop
endfacet
facet normal -1.000000 0.000000 0.000000
outer loop
vertex -0.003921 0.019714 -0.066040
vertex -0.003921 0.019714 -0.033960
vertex -0.003921 0.094714 -0.033960
endloop
endfacet
facet normal -1.000000 0.000000 0.000000
outer loop
vertex -0.003921 0.019714 -0.066040
vertex -0.003921 0.094714 -0.033960
vertex -0.003921 0.094714 -0.066040
endloop
endfacet
facet normal 0.290285 0.956940 0.000000
outer loop
vertex 0.003921 0.019714 -0.066040
vertex 0.003921 0.019714 -0.033960
vertex 0.007692 0.018570 -0.033960
endloop
endfacet
facet normal 0.290285 0.956940 0.000000
outer loop
vertex 0.003921 0.019714 -0.066040
vertex 0.007692 0.018570 -0.033960
vertex 0.007692 0.018570 -0.066040
endloop
endfacet
facet normal 0.471397 0.881921 0.000000
outer loop
vertex 0.007692 0.018570 -0.066040
vertex 0.007692 0.018570 -0.033960
vertex 0.011167 0.016713 -0.033960
endloop
endfacet
facet normal 0.471397 0.881921 0.000000
outer loop
vertex 0.007692 0.018570 -0.066040
vertex 0.011167 0.016713 -0.033960
vertex 0.011167 0.016713 -0.066040
endloop
endfacet
facet normal 0.634393 0.773011 0.000000
outer loop
vertex 0.011167 0.016713 -0.066040
vertex 0.011167 0.016713 -0.033960
vertex 0.014213 0.014213 -0.033960
endloop
endfacet
facet normal 0.634393 0.773010 0.000000
outer loop
vertex 0.011167 0.016713 -0.066040
vertex 0.014213 0.014213 -0.033960
vertex 0.014213 0.014213 -0.066040
endloop
endfacet
facet normal 0.773010 0.634393 0.000000
outer loop
vertex 0.014213 0.014213 -0.066040
vertex 0.014213 0.014213 -0.033960
vertex 0.016713 0.011167 -0.033960
endloop
endfacet
facet normal 0.773011 0.634393 0.000000
outer loop
vertex 0.014213 0.014213 -0.066040
vertex 0.016713 0.011167 -0.033960
vertex 0.016713 0.011167 -0.066040
endloop
endfacet
facet normal 0.881921 0.471397 0.000000
outer loop
vertex 0.016713 0.011167 -0.066040
vertex 0.016713 0.011167 -0.033960
vertex 0.018570 0.007692 -0.033960
endloop
endfacet
facet normal 0.881921 0.471397 0.000000
outer loop
vertex 0.016713 0.011167 -0.066040
vertex 0.018570 0.007692 -0.033960
vertex 0.018570 0.007692 -0.066040
endloop
endfacet
facet normal 0.956940 0.290285 0.000000
outer loop
vertex 0.018570 0.007692 -0.066040
vertex 0.018570 0.007692 -0.033960
vertex 0.019714 0.003921 -0.033960
endloop
endfacet
facet normal 0.956940 0.290285 0.000000
outer loop
vertex 0.018570 0.007692 -0.066040
vertex 0.019714 0.003921 -0.033960
vertex 0.019714 0.003921 -0.066040
endloop
endfacet
facet normal 0.000000 0.000000 1.000000
outer loop
vertex 0.020100 0.000000 -0.033960
vertex 0.019714 -0.003921 -0.033960
vertex 0.094714 -0.003921 -0.033960
endloop
endfacet
facet normal 0.000000 0.000000 1.000000
outer loop
vertex 0.020100 0.000000 -0.033960
vertex 0.094714 -0.003921 -0.033960
vertex 0.095100 0.000000 -0.033960
endloop
endfacet
facet normal 0.881922 -0.471396 0.000000
outer loop
vertex 0.018570 -0.007692 -0.070000
vertex 0.018570 -0.007692 -0.066040
vertex 0.016713 -0.011167 -0.066040
endloop
endfacet
facet normal 0.881922 -0.471396 0.000000
outer loop
vertex 0.018570 -0.007692 -0.070000
vertex 0.016713 -0.011167 -0.066040
vertex 0.016713 -0.011167 -0.070000
endloop
endfacet
facet normal 0.634393 -0.773010 0.000000
outer loop
vertex 0.014213 -0.014213 -0.070000
vertex 0.014213 -0.014213 -0.066040
vertex 0.011167 -0.016713 -0.066040
endloop
endfacet
facet normal 0.634394 -0.773010 0.000000
outer loop
vertex 0.014213 -0.014213 -0.070000
vertex 0.011167 -0.016713 -0.066040
vertex 0.011167 -0.016713 -0.070000
endloop
endfacet
facet normal 0.773010 -0.634394 0.000000
outer loop
vertex 0.016713 -0.011167 -0.070000
vertex 0.016713 -0.011167 -0.066040
vertex 0.014213 -0.014213 -0.066040
endloop
endfacet
facet normal 0.773011 -0.634393 0.000000
outer loop
vertex 0.016713 -0.011167 -0.070000
vertex 0.014213 -0.014213 -0.066040
vertex 0.014213 -0.014213 -0.070000
endloop
endfacet
facet normal 0.471397 -0.881921 0.000000
outer loop
vertex 0.011167 -0.016713 -0.070000
vertex 0.011167 -0.016713 -0.066040
vertex 0.007692 -0.018570 -0.066040
endloop
endfacet
facet normal 0.471397 -0.881921 0.000000
outer loop
vertex 0.011167 -0.016713 -0.070000
vertex 0.007692 -0.018570 -0.066040
vertex 0.007692 -0.018570 -0.070000
endloop
endfacet
facet normal -0.634394 -0.773010 0.000000
outer loop
vertex -0.011167 -0.016713 -0.066040
vertex -0.011167 -0.016713 -0.033960
vertex -0.014213 -0.014213 -0.033960
endloop
endfacet
facet normal -0.634394 -0.773010 0.000000
outer loop
vertex -0.011167 -0.016713 -0.066040
vertex -0.014213 -0.014213 -0.033960
vertex -0.014213 -0.014213 -0.066040
endloop
endfacet
facet normal -0.471397 -0.881921 0.000000
outer loop
vertex -0.007692 -0.018570 -0.066040
vertex -0.007692 -0.018570 -0.033960
vertex -0.011167 -0.016713 -0.033960
endloop
endfacet
facet normal -0.471397 -0.881921 0.000000
outer loop
vertex -0.007692 -0.018570 -0.066040
vertex -0.011167 -0.016713 -0.033960
vertex -0.011167 -0.016713 -0.066040
endloop
endfacet
facet normal -0.290283 0.956941 0.000000
outer loop
vertex -0.007692 0.018570 -0.066040
vertex -0.007692 0.018570 -0.033960
vertex -0.003921 0.019714 -0.033960
endloop
endfacet
facet normal -0.290283 0.956941 0.000000
outer loop
vertex -0.007692 0.018570 -0.066040
vertex -0.003921 0.019714 -0.033960
vertex -0.003921 0.019714 -0.066040
endloop
endfacet
facet normal -0.471396 0.881922 0.000000
outer loop
vertex -0.011167 0.016713 -0.070000
vertex -0.011167 0.016713 -0.066040
vertex -0.007692 0.018570 -0.066040
endloop
endfacet
facet normal -0.471395 0.881922 0.000000
outer loop
vertex -0.011167 0.016713 -0.070000
vertex -0.007692 0.018570 -0.066040
vertex -0.007692 0.018570 -0.070000
endloop
endfacet
facet normal 0.000000 0.000000 1.000000
outer loop
vertex -0.003921 0.019714 -0.033960
vertex 0.000000 0.020100 -0.033960
vertex 0.000000 0.095100 -0.033960
endloop
endfacet
facet normal -0.000000 0.000000 1.000000
outer loop
vertex -0.003921 0.019714 -0.033960
vertex 0.000000 0.095100 -0.033960
vertex -0.003921 0.094714 -0.033960
endloop
endfacet
facet normal 0.098017 0.995185 0.000000
outer loop
vertex 0.000000 0.020100 -0.033960
vertex 0.000000 0.020100 -0.030000
vertex 0.003921 0.019714 -0.030000
endloop
endfacet
facet normal 0.098017 0.995185 0.000000
outer loop
vertex 0.000000 0.020100 -0.033960
vertex 0.003921 0.019714 -0.030000
vertex 0.003921 0.019714 -0.033960
endloop
endfacet
facet normal 0.290285 0.956940 0.000000
outer loop
vertex 0.003921 0.019714 -0.033960
vertex 0.003921 0.019714 -0.030000
vertex 0.007692 0.018570 -0.030000
endloop
endfacet
facet normal 0.290284 0.956940 0.000000
outer loop
vertex 0.003921 0.019714 -0.033960
vertex 0.007692 0.018570 -0.030000
vertex 0.007692 0.018570 -0.033960
endloop
endfacet
facet normal 0.471397 0.881921 0.000000
outer loop
vertex 0.007692 0.018570 -0.033960
vertex 0.007692 0.018570 -0.030000
vertex 0.011167 0.016713 -0.030000
endloop
endfacet
facet normal 0.471397 0.881921 0.000000
outer loop
vertex 0.007692 0.018570 -0.033960
vertex 0.011167 0.016713 -0.030000
vertex 0.011167 0.016713 -0.033960
endloop
endfacet
facet normal 0.634393 0.773011 0.000000
outer loop
vertex 0.011167 0.016713 -0.033960
vertex 0.011167 0.016713 -0.030000
vertex 0.014213 0.014213 -0.030000
endloop
endfacet
facet normal 0.634393 0.773010 0.000000
outer loop
vertex 0.011167 0.016713 -0.033960
vertex 0.014213 0.014213 -0.030000
vertex 0.014213 0.014213 -0.033960
endloop
endfacet
facet normal 0.773011 0.634393 0.000000
outer loop
vertex 0.014213 0.014213 -0.033960
vertex 0.014213 0.014213 -0.030000
vertex 0.016713 0.011167 -0.030000
endloop
endfacet
facet normal 0.773010 0.634394 0.000000
outer loop
vertex 0.014213 0.014213 -0.033960
vertex 0.016713 0.011167 -0.030000
vertex 0.016713 0.011167 -0.033960
endloop
endfacet
facet normal 0.881921 0.471397 0.000000
outer loop
vertex 0.016713 0.011167 -0.033960
vertex 0.016713 0.011167 -0.030000
vertex 0.018570 0.007692 -0.030000
endloop
endfacet
facet normal 0.881921 0.471397 0.000000
outer loop
vertex 0.016713 0.011167 -0.033960
vertex 0.018570 0.007692 -0.030000
vertex 0.018570 0.007692 -0.033960
endloop
endfacet
facet normal 0.956940 0.290284 0.000000
outer loop
vertex 0.018570 0.007692 -0.033960
vertex 0.018570 0.007692 -0.030000
vertex 0.019714 0.003921 -0.030000
endloop
endfacet
facet normal 0.956940 0.290285 0.000000
outer loop
vertex 0.018570 0.007692 -0.033960
vertex 0.019714 0.003921 -0.030000
vertex 0.019714 0.003921 -0.033960
endloop
endfacet
facet normal 0.995185 0.098017 0.000000
outer loop
vertex 0.019714 0.003921 -0.033960
vertex 0.019714 0.003921 -0.030000
vertex 0.020100 0.000000 -0.030000
endloop
endfacet
facet normal 0.995185 0.098016 0.000000
outer loop
vertex 0.019714 0.003921 -0.033960
vertex 0.020100 0.000000 -0.030000
vertex 0.020100 0.000000 -0.033960
endloop
endfacet
facet normal 0.995185 -0.098016 0.000000
outer loop
vertex 0.020100 0.000000 -0.033960
vertex 0.020100 0.000000 -0.030000
vertex 0.019714 -0.003921 -0.030000
endloop
endfacet
facet normal 0.995185 -0.098017 0.000000
outer loop
vertex 0.020100 0.000000 -0.033960
vertex 0.019714 -0.003921 -0.030000
vertex 0.019714 -0.003921 -0.033960
endloop
endfacet
facet normal 0.956940 -0.290285 0.000000
outer loop
vertex 0.019714 -0.003921 -0.033960
vertex 0.019714 -0.003921 -0.030000
vertex 0.018570 -0.007692 -0.030000
endloop
endfacet
facet normal 0.956940 -0.290284 0.000000
outer loop
vertex 0.019714 -0.003921 -0.033960
vertex 0.018570 -0.007692 -0.030000
vertex 0.018570 -0.007692 -0.033960
endloop
endfacet
facet normal 0.881922 -0.471396 0.000000
outer loop
vertex 0.018570 -0.007692 -0.033960
vertex 0.018570 -0.007692 -0.030000
vertex 0.016713 -0.011167 -0.030000
endloop
endfacet
facet normal 0.881921 -0.471397 0.000000
outer loop
vertex 0.018570 -0.007692 -0.033960
vertex 0.016713 -0.011167 -0.030000
vertex 0.016713 -0.011167 -0.033960
endloop
endfacet
facet normal 0.773010 -0.634394 0.000000
outer loop
vertex 0.016713 -0.011167 -0.033960
vertex 0.016713 -0.011167 -0.030000
vertex 0.014213 -0.014213 -0.030000
endloop
endfacet
facet normal 0.773011 -0.634393 0.000000
outer loop
vertex 0.016713 -0.011167 -0.033960
vertex 0.014213 -0.014213 -0.030000
vertex 0.014213 -0.014213 -0.033960
endloop
endfacet
facet normal 0.634394 -0.773010 0.000000
outer loop
vertex 0.014213 -0.014213 -0.033960
vertex 0.014213 -0.014213 -0.030000
vertex 0.011167 -0.016713 -0.030000
endloop
endfacet
facet normal 0.634393 -0.773011 0.000000
outer loop
vertex 0.014213 -0.014213 -0.033960
vertex 0.011167 -0.016713 -0.030000
vertex 0.011167 -0.016713 -0.033960
endloop
endfacet
facet normal 0.471397 -0.881921 0.000000
outer loop
vertex 0.011167 -0.016713 -0.033960
vertex 0.011167 -0.016713 -0.030000
vertex 0.007692 -0.018570 -0.030000
endloop
endfacet
facet normal 0.471397 -0.881921 0.000000
outer loop
vertex 0.011167 -0.016713 -0.033960
vertex 0.007692 -0.018570 -0.030000
vertex 0.007692 -0.018570 -0.033960
endloop
endfacet
facet normal 0.290284 -0.956940 0.000000
outer loop
vertex 0.007692 -0.018570 -0.033960
vertex 0.007692 -0.018570 -0.030000
vertex 0.003921 -0.019714 -0.030000
endloop
endfacet
facet normal 0.290284 -0.956941 0.000000
outer loop
vertex 0.007692 -0.018570 -0.033960
vertex 0.003921 -0.019714 -0.030000
vertex 0.003921 -0.019714 -0.033960
endloop
endfacet
facet normal 0.098017 -0.995185 0.000000
outer loop
vertex 0.003921 -0.019714 -0.033960
vertex 0.003921 -0.019714 -0.030000
vertex -0.000000 -0.020100 -0.030000
endloop
endfacet
facet normal 0.098017 -0.995185 0.000000
outer loop
vertex 0.003921 -0.019714 -0.033960
vertex -0.000000 -0.020100 -0.030000
vertex -0.000000 -0.020100 -0.033960
endloop
endfacet
facet normal -0.098017 -0.995185 0.000000
outer loop
vertex -0.000000 -0.020100 -0.033960
vertex -0.000000 -0.020100 -0.030000
vertex -0.003921 -0.019714 -0.030000
endloop
endfacet
facet normal -0.098017 -0.995185 0.000000
outer loop
vertex -0.000000 -0.020100 -0.033960
vertex -0.003921 -0.019714 -0.030000
vertex -0.003921 -0.019714 -0.033960
endloop
endfacet
facet normal -0.290286 -0.956940 0.000000
outer loop
vertex -0.003921 -0.019714 -0.033960
vertex -0.003921 -0.019714 -0.030000
vertex -0.007692 -0.018570 -0.030000
endloop
endfacet
facet normal -0.290285 -0.956940 0.000000
outer loop
vertex -0.003921 -0.019714 -0.033960
vertex -0.007692 -0.018570 -0.030000
vertex -0.007692 -0.018570 -0.033960
endloop
endfacet
facet normal -0.471397 -0.881921 0.000000
outer loop
vertex -0.007692 -0.018570 -0.033960
vertex -0.007692 -0.018570 -0.030000
vertex -0.011167 -0.016713 -0.030000
endloop
endfacet
facet normal -0.471397 -0.881921 0.000000
outer loop
vertex -0.007692 -0.018570 -0.033960
vertex -0.011167 -0.016713 -0.030000
vertex -0.011167 -0.016713 -0.033960
endloop
endfacet
facet normal -0.634394 -0.773010 0.000000
outer loop
vertex -0.011167 -0.016713 -0.033960
vertex -0.011167 -0.016713 -0.030000
vertex -0.014213 -0.014213 -0.030000
endloop
endfacet
facet normal -0.634394 -0.773010 0.000000
outer loop
vertex -0.011167 -0.016713 -0.033960
vertex -0.014213 -0.014213 -0.030000
vertex -0.014213 -0.014213 -0.033960
endloop
endfacet
facet normal -0.773011 -0.634393 0.000000
outer loop
vertex -0.014213 -0.014213 -0.033960
vertex -0.014213 -0.014213 -0.030000
vertex -0.016713 -0.011167 -0.030000
endloop
endfacet
facet normal -0.773010 -0.634393 0.000000
outer loop
vertex -0.014213 -0.014213 -0.033960
vertex -0.016713 -0.011167 -0.030000
vertex -0.016713 -0.011167 -0.033960
endloop
endfacet
facet normal -0.881922 -0.471396 0.000000
outer loop
vertex -0.016713 -0.011167 -0.033960
vertex -0.016713 -0.011167 -0.030000
vertex -0.018570 -0.007692 -0.030000
endloop
endfacet
facet normal -0.881922 -0.471396 0.000000
outer loop
vertex -0.016713 -0.011167 -0.033960
vertex -0.018570 -0.007692 -0.030000
vertex -0.018570 -0.007692 -0.033960
endloop
endfacet
facet normal -0.956941 -0.290283 0.000000
outer loop
vertex -0.018570 -0.007692 -0.033960
vertex -0.018570 -0.007692 -0.030000
vertex -0.019714 -0.003921 -0.030000
endloop
endfacet
facet normal -0.956941 -0.290284 0.000000
outer loop
vertex -0.018570 -0.007692 -0.033960
vertex -0.019714 -0.003921 -0.030000
vertex -0.019714 -0.003921 -0.033960
endloop
endfacet
facet normal -0.995185 -0.098016 0.000000
outer loop
vertex -0.019714 -0.003921 -0.033960
vertex -0.019714 -0.003921 -0.030000
vertex -0.020100 0.000000 -0.030000
endloop
endfacet
facet normal -0.995185 -0.098016 0.000000
outer loop
vertex -0.019714 -0.003921 -0.033960
vertex -0.020100 0.000000 -0.030000
vertex -0.020100 0.000000 -0.033960
endloop
endfacet
facet normal -0.995185 0.098018 0.000000
outer loop
vertex -0.020100 0.000000 -0.033960
vertex -0.020100 0.000000 -0.030000
vertex -0.019714 0.003921 -0.030000
endloop
endfacet
facet normal -0.995185 0.098017 0.000000
outer loop
vertex -0.020100 0.000000 -0.033960
vertex -0.019714 0.003921 -0.030000
vertex -0.019714 0.003921 -0.033960
endloop
endfacet
facet normal -0.956940 0.290287 0.000000
outer loop
vertex -0.019714 0.003921 -0.033960
vertex -0.019714 0.003921 -0.030000
vertex -0.018570 0.007692 -0.030000
endloop
endfacet
facet normal -0.956940 0.290285 0.000000
outer loop
vertex -0.019714 0.003921 -0.033960
vertex -0.018570 0.007692 -0.030000
vertex -0.018570 0.007692 -0.033960
endloop
endfacet
facet normal -0.881921 0.471398 0.000000
outer loop
vertex -0.018570 0.007692 -0.033960
vertex -0.018570 0.007692 -0.030000
vertex -0.016713 0.011167 -0.030000
endloop
endfacet
facet normal -0.881921 0.471398 0.000000
outer loop
vertex -0.018570 0.007692 -0.033960
vertex -0.016713 0.011167 -0.030000
vertex -0.016713 0.011167 -0.033960
endloop
endfacet
facet normal -0.773010 0.634394 0.000000
outer loop
vertex -0.016713 0.011167 -0.033960
vertex -0.016713 0.011167 -0.030000
vertex -0.014213 0.014213 -0.030000
endloop
endfacet
facet normal -0.773009 0.634395 0.000000
outer loop
vertex -0.016713 0.011167 -0.033960
vertex -0.014213 0.014213 -0.030000
vertex -0.014213 0.014213 -0.033960
endloop
endfacet
facet normal -0.634392 0.773011 0.000000
outer loop
vertex -0.014213 0.014213 -0.033960
vertex -0.014213 0.014213 -0.030000
vertex -0.011167 0.016713 -0.030000
endloop
endfacet
facet normal -0.634392 0.773011 0.000000
outer loop
vertex -0.014213 0.014213 -0.033960
vertex -0.011167 0.016713 -0.030000
vertex -0.011167 0.016713 -0.033960
endloop
endfacet
facet normal -0.471396 0.881922 0.000000
outer loop
vertex -0.011167 0.016713 -0.033960
vertex -0.011167 0.016713 -0.030000
vertex -0.007692 0.018570 -0.030000
endloop
endfacet
facet normal -0.471396 0.881922 0.000000
outer loop
vertex -0.011167 0.016713 -0.033960
vertex -0.007692 0.018570 -0.030000
vertex -0.007692 0.018570 -0.033960
endloop
endfacet
facet normal -0.290283 0.956941 0.000000
outer loop
vertex -0.007692 0.018570 -0.033960
vertex -0.007692 0.018570 -0.030000
vertex -0.003921 0.019714 -0.030000
endloop
endfacet
facet normal -0.290283 0.956941 0.000000
outer loop
vertex -0.007692 0.018570 -0.033960
vertex -0.003921 0.019714 -0.030000
vertex -0.003921 0.019714 -0.033960
endloop
endfacet
facet normal -0.098016 0.995185 0.000000
outer loop
vertex -0.003921 0.019714 -0.033960
vertex -0.003921 0.019714 -0.030000
vertex 0.000000 0.020100 -0.030000
endloop
endfacet
facet normal -0.098016 0.995185 0.000000
outer loop
vertex -0.003921 0.019714 -0.033960
vertex 0.000000 0.020100 -0.030000
vertex 0.000000 0.020100 -0.033960
endloop
endfacet
facet normal 0.995184 -0.098021 0.000000
outer loop
vertex 0.095100 0.000000 -0.066040
vertex 0.095100 0.000000 -0.033960
vertex 0.094714 -0.003921 -0.033960
endloop
endfacet
facet normal 0.995185 -0.098017 0.000000
outer loop
vertex 0.095100 0.000000 -0.066040
vertex 0.094714 -0.003921 -0.033960
vertex 0.094714 -0.003921 -0.066040
endloop
endfacet
facet normal 0.995185 0.098017 0.000000
outer loop
vertex 0.094714 0.003921 -0.066040
vertex 0.094714 0.003921 -0.033960
vertex 0.095100 0.000000 -0.033960
endloop
endfacet
facet normal 0.995184 0.098021 0.000000
outer loop
vertex 0.094714 0.003921 -0.066040
vertex 0.095100 0.000000 -0.033960
vertex 0.095100 0.000000 -0.066040
endloop
endfacet
facet normal 0.000000 0.000000 -1.000000
outer loop
vertex 0.020100 0.000000 -0.066040
vertex 0.019714 0.003921 -0.066040
vertex 0.094714 0.003921 -0.066040
endloop
endfacet
facet normal 0.000000 0.000000 -1.000000
outer loop
vertex 0.020100 0.000000 -0.066040
vertex 0.094714 0.003921 -0.066040
vertex 0.095100 0.000000 -0.066040
endloop
endfacet
facet normal 0.000000 0.000000 1.000000
outer loop
vertex 0.019714 0.003921 -0.033960
vertex 0.020100 0.000000 -0.033960
vertex 0.095100 0.000000 -0.033960
endloop
endfacet
facet normal 0.000000 0.000000 1.000000
outer loop
vertex 0.019714 0.003921 -0.033960
vertex 0.095100 0.000000 -0.033960
vertex 0.094714 0.003921 -0.033960
endloop
endfacet
facet normal 0.000000 -1.000000 0.000000
outer loop
vertex 0.019714 -0.003921 -0.033960
vertex 0.019714 -0.003921 -0.066040
vertex 0.094714 -0.003921 -0.066040
endloop
endfacet
facet normal 0.000000 -1.000000 0.000000
outer loop
vertex 0.019714 -0.003921 -0.033960
vertex 0.094714 -0.003921 -0.066040
vertex 0.094714 -0.003921 -0.033960
endloop
endfacet
facet normal 0.000000 1.000000 0.000000
outer loop
vertex 0.019714 0.003921 -0.066040
vertex 0.019714 0.003921 -0.033960
vertex 0.094714 0.003921 -0.033960
endloop
endfacet
facet normal 0.000000 1.000000 0.000000
outer loop
vertex 0.019714 0.003921 -0.066040
vertex 0.094714 0.003921 -0.033960
vertex 0.094714 0.003921 -0.066040
endloop
endfacet
facet normal -0.995184 0.098021 0.000000
outer loop
vertex -0.095100 0.000000 -0.066040
vertex -0.095100 0.000000 -0.033960
vertex -0.094714 0.003921 -0.033960
endloop
endfacet
facet normal -0.995185 0.098017 0.000000
outer loop
vertex -0.095100 0.000000 -0.066040
vertex -0.094714 0.003921 -0.033960
vertex -0.094714 0.003921 -0.066040
endloop
endfacet
facet normal -0.995185 -0.098014 0.000000
outer loop
vertex -0.094714 -0.003921 -0.066040
vertex -0.094714 -0.003921 -0.033960
vertex -0.095100 0.000000 -0.033960
endloop
endfacet
facet normal -0.995184 -0.098021 0.000000
outer loop
vertex -0.094714 -0.003921 -0.066040
vertex -0.095100 0.000000 -0.033960
vertex -0.095100 0.000000 -0.066040
endloop
endfacet
facet normal 0.000000 0.000000 -1.000000
outer loop
vertex -0.020100 0.000000 -0.066040
vertex -0.019714 -0.003921 -0.066040
vertex -0.094714 -0.003921 -0.066040
endloop
endfacet
facet normal 0.000000 0.000000 -1.000000
outer loop
vertex -0.020100 0.000000 -0.066040
vertex -0.094714 -0.003921 -0.066040
vertex -0.095100 0.000000 -0.066040
endloop
endfacet
facet normal 0.000001 1.000000 0.000000
outer loop
vertex -0.019714 0.003921 -0.033960
vertex -0.019714 0.003921 -0.066040
vertex -0.094714 0.003921 -0.066040
endloop
endfacet
facet normal 0.000001 1.000000 0.000000
outer loop
vertex -0.019714 0.003921 -0.033960
vertex -0.094714 0.003921 -0.066040
vertex -0.094714 0.003921 -0.033960
endloop
endfacet
facet normal -0.000000 0.000000 -1.000000
outer loop
vertex -0.019714 0.003921 -0.066040
vertex -0.020100 0.000000 -0.066040
vertex -0.095100 0.000000 -0.066040
endloop
endfacet
facet normal 0.000000 0.000000 -1.000000
outer loop
vertex -0.019714 0.003921 -0.066040
vertex -0.095100 0.000000 -0.066040
vertex -0.094714 0.003921 -0.066040
endloop
endfacet
facet normal -0.000000 0.000000 1.000000
outer loop
vertex -0.020100 0.000000 -0.033960
vertex -0.019714 0.003921 -0.033960
vertex -0.094714 0.003921 -0.033960
endloop
endfacet
facet normal 0.000000 0.000000 1.000000
outer loop
vertex -0.020100 0.000000 -0.033960
vertex -0.094714 0.003921 -0.033960
vertex -0.095100 0.000000 -0.033960
endloop
endfacet
facet normal 0.098019 0.995185 0.000000
outer loop
vertex 0.000000 0.095100 -0.066040
vertex 0.000000 0.095100 -0.033960
vertex 0.003921 0.094714 -0.033960
endloop
endfacet
facet normal 0.098019 0.995185 0.000000
outer loop
vertex 0.000000 0.095100 -0.066040
vertex 0.003921 0.094714 -0.033960
vertex 0.003921 0.094714 -0.066040
endloop
endfacet
facet normal -0.098018 0.995185 0.000000
outer loop
vertex -0.003921 0.094714 -0.066040
vertex -0.003921 0.094714 -0.033960
vertex 0.000000 0.095100 -0.033960
endloop
endfacet
facet normal -0.098018 0.995185 0.000000
outer loop
vertex -0.003921 0.094714 -0.066040
vertex 0.000000 0.095100 -0.033960
vertex 0.000000 0.095100 -0.066040
endloop
endfacet
facet normal 1.000000 -0.000000 0.000000
outer loop
vertex 0.003921 0.019714 -0.033960
vertex 0.003921 0.019714 -0.066040
vertex 0.003921 0.094714 -0.066040
endloop
endfacet
facet normal 1.000000 -0.000000 0.000000
outer loop
vertex 0.003921 0.019714 -0.033960
vertex 0.003921 0.094714 -0.066040
vertex 0.003921 0.094714 -0.033960
endloop
endfacet
facet normal 0.000000 0.000000 -1.000000
outer loop
vertex 0.003921 0.019714 -0.066040
vertex 0.000000 0.020100 -0.066040
vertex 0.000000 0.095100 -0.066040
endloop
endfacet
facet normal -0.000000 0.000000 -1.000000
outer loop
vertex 0.003921 0.019714 -0.066040
vertex 0.000000 0.095100 -0.066040
vertex 0.003921 0.094714 -0.066040
endloop
endfacet
facet normal 0.000002 0.000000 1.000000
outer loop
vertex 0.000000 0.020100 -0.033960
vertex 0.003921 0.019714 -0.033960
vertex 0.003921 0.094714 -0.033960
endloop
endfacet
facet normal -0.000001 0.000000 1.000000
outer loop
vertex 0.000000 0.020100 -0.033960
vertex 0.003921 0.094714 -0.033960
vertex 0.000000 0.095100 -0.033960
endloop
endfacet
facet normal 0.000000 0.000000 -1.000000
outer loop
vertex 0.000000 0.020100 -0.066040
vertex -0.003921 0.019714 -0.066040
vertex -0.003921 0.094714 -0.066040
endloop
endfacet
facet normal 0.000000 0.000000 -1.000000
outer loop
vertex 0.000000 0.020100 -0.066040
vertex -0.003921 0.094714 -0.066040
vertex 0.000000 0.095100 -0.066040
endloop
endfacet
facet normal -0.098019 -0.995185 0.000000
outer loop
vertex -0.000000 -0.095100 -0.066040
vertex -0.000000 -0.095100 -0.033960
vertex -0.003921 -0.094714 -0.033960
endloop
endfacet
facet normal -0.098019 -0.995185 0.000000
outer loop
vertex -0.000000 -0.095100 -0.066040
vertex -0.003921 -0.094714 -0.033960
vertex -0.003921 -0.094714 -0.066040
endloop
endfacet
facet normal 0.098019 -0.995185 0.000000
outer loop
vertex 0.003921 -0.094714 -0.066040
vertex 0.003921 -0.094714 -0.033960
vertex -0.000000 -0.095100 -0.033960
endloop
endfacet
facet normal 0.098019 -0.995185 0.000000
outer loop
vertex 0.003921 -0.094714 -0.066040
vertex -0.000000 -0.095100 -0.033960
vertex -0.000000 -0.095100 -0.066040
endloop
endfacet
facet normal 0.000000 0.000000 -1.000000
outer loop
vertex -0.000000 -0.020100 -0.066040
vertex 0.003921 -0.019714 -0.066040
vertex 0.003921 -0.094714 -0.066040
endloop
endfacet
facet normal -0.000000 0.000000 -1.000000
outer loop
vertex -0.000000 -0.020100 -0.066040
vertex 0.003921 -0.094714 -0.066040
vertex -0.000000 -0.095100 -0.066040
endloop
endfacet
facet normal 0.000000 0.000000 -1.000000
outer loop
vertex -0.003921 -0.019714 -0.066040
vertex -0.000000 -0.020100 -0.066040
vertex -0.000000 -0.095100 -0.066040
endloop
endfacet
facet normal 0.000000 0.000000 -1.000000
outer loop
vertex -0.003921 -0.019714 -0.066040
vertex -0.000000 -0.095100 -0.066040
vertex -0.003921 -0.094714 -0.066040
endloop
endfacet
facet normal 0.000000 0.000000 1.000000
outer loop
vertex 0.003921 -0.019714 -0.033960
vertex -0.000000 -0.020100 -0.033960
vertex -0.000000 -0.095100 -0.033960
endloop
endfacet
facet normal 0.000001 0.000000 1.000000
outer loop
vertex 0.003921 -0.019714 -0.033960
vertex -0.000000 -0.095100 -0.033960
vertex 0.003921 -0.094714 -0.033960
endloop
endfacet
facet normal -0.000002 0.000000 1.000000
outer loop
vertex -0.000000 -0.020100 -0.033960
vertex -0.003921 -0.019714 -0.033960
vertex -0.003921 -0.094714 -0.033960
endloop
endfacet
facet normal 0.000001 0.000000 1.000000
outer loop
vertex -0.000000 -0.020100 -0.033960
vertex -0.003921 -0.094714 -0.033960
vertex -0.000000 -0.095100 -0.033960
endloop
endfacet
endsolid Exported from Blender-2.82 (sub 7)
