<svg fill="#000000" height="24" viewBox="0 0 24 24" width="24" xmlns="http://www.w3.org/2000/svg">
  <path d="M 6.4160156 2.0292969 L 6.4160156 2.0351562 L 1.9433594 6.4628906 L 1.9472656 6.4667969 L 1.9472656 7.4375 L 1.9472656 22.445312 L 18.009766 22.445312 L 18.009766 22.412109 L 22.433594 18.013672 L 22.478516 18.013672 L 22.478516 2.0292969 L 6.4160156 2.0292969 z M 8.3730469 3.984375 L 19.091797 3.984375 L 16.583984 6.4609375 L 8.3730469 6.4609375 L 8.3730469 3.984375 z M 6.4160156 4.7871094 L 6.4160156 6.4609375 L 4.7265625 6.4609375 L 6.4160156 4.7871094 z M 20.521484 5.3222656 L 20.521484 16.058594 L 18.009766 16.058594 L 18.009766 7.8027344 L 20.521484 5.3222656 z M 3.9042969 8.4160156 L 6.4160156 8.4160156 L 6.4160156 16.675781 L 3.9042969 19.138672 L 3.9042969 8.4160156 z M 8.3730469 8.4160156 L 16.052734 8.4160156 L 16.052734 16.058594 L 8.3730469 16.058594 L 8.3730469 8.4160156 z M 7.8457031 18.013672 L 16.052734 18.013672 L 16.052734 20.490234 L 5.3203125 20.490234 L 7.8457031 18.013672 z M 18.009766 18.013672 L 19.658203 18.013672 L 18.009766 19.654297 L 18.009766 18.013672 z "/>
</svg>
