<svg fill="#000000" height="24" viewBox="0 0 24 24" width="24" xmlns="http://www.w3.org/2000/svg">
  <path
     d="M 3 3 L 3 5 L 5 5 L 5 3 L 3 3 z M 7 3 L 7 5 L 9 5 L 9 3 L 7 3 z M 11 3 L 11 5 L 13 5 L 13 3 L 11 3 z M 15 3 L 15 5 L 17 5 L 17 3 L 15 3 z M 19 3 L 19 5 L 21 5 L 21 3 L 19 3 z M 3 7 L 3 9 L 5 9 L 5 7 L 3 7 z M 19 7 L 19 9 L 21 9 L 21 7 L 19 7 z M 3 11 L 3 13 L 5 13 L 5 11 L 3 11 z M 19 11 L 19 13 L 21 13 L 21 11 L 19 11 z M 3 15 L 3 17 L 5 17 L 5 15 L 3 15 z M 19 15 L 19 17 L 21 17 L 21 15 L 19 15 z M 19.996094 17.669922 A 2.3135593 2.3135593 0 0 0 18.238281 18.480469 L 5.7421875 18.480469 A 2.3135593 2.3135593 0 0 0 3.9960938 17.681641 A 2.3135593 2.3135593 0 0 0 1.6835938 19.994141 A 2.3135593 2.3135593 0 0 0 3.9960938 22.308594 A 2.3135593 2.3135593 0 0 0 5.7753906 21.472656 L 18.228516 21.472656 A 2.3135593 2.3135593 0 0 0 19.996094 22.296875 A 2.3135593 2.3135593 0 0 0 22.308594 19.982422 A 2.3135593 2.3135593 0 0 0 19.996094 17.669922 z "/>
</svg>
