<?xml version="1.0" encoding="UTF-8" standalone="no"?>
<svg
   xmlns:dc="http://purl.org/dc/elements/1.1/"
   xmlns:cc="http://creativecommons.org/ns#"
   xmlns:rdf="http://www.w3.org/1999/02/22-rdf-syntax-ns#"
   xmlns:svg="http://www.w3.org/2000/svg"
   xmlns="http://www.w3.org/2000/svg"
   xmlns:sodipodi="http://sodipodi.sourceforge.net/DTD/sodipodi-0.dtd"
   xmlns:inkscape="http://www.inkscape.org/namespaces/inkscape"
   fill="#000000"
   height="24"
   viewBox="0 0 24 24"
   width="24"
   version="1.1"
   id="svg925"
   sodipodi:docname="camera_stack.svg"
   inkscape:version="0.92.2 (5c3e80d, 2017-08-06)">
  <metadata
     id="metadata931">
    <rdf:RDF>
      <cc:Work
         rdf:about="">
        <dc:format>image/svg+xml</dc:format>
        <dc:type
           rdf:resource="http://purl.org/dc/dcmitype/StillImage" />
        <dc:title></dc:title>
      </cc:Work>
    </rdf:RDF>
  </metadata>
  <defs
     id="defs929" />
  <sodipodi:namedview
     pagecolor="#ffffff"
     bordercolor="#666666"
     borderopacity="1"
     objecttolerance="10"
     gridtolerance="10"
     guidetolerance="10"
     inkscape:pageopacity="0"
     inkscape:pageshadow="2"
     inkscape:window-width="1920"
     inkscape:window-height="1101"
     id="namedview927"
     showgrid="true"
     inkscape:zoom="25.51477"
     inkscape:cx="11.2041"
     inkscape:cy="11.038025"
     inkscape:window-x="0"
     inkscape:window-y="28"
     inkscape:window-maximized="1"
     inkscape:current-layer="svg925">
    <inkscape:grid
       type="xygrid"
       id="grid4676" />
  </sodipodi:namedview>
  <ellipse
     cx="10"
     cy="14.777778"
     id="circle919"
     style="stroke-width:0.78881067"
     rx="2.5599999"
     ry="2.488889" />
  <path
     d="m 7.6000001,7 -1.464,1.5555555 H 3.6 c -0.88,0 -1.6,0.7000001 -1.6,1.5555555 v 9.333334 C 2,20.3 2.72,21 3.6,21 H 16.4 C 17.28,21 18,20.3 18,19.444445 V 10.111111 C 18,9.2555556 17.28,8.5555555 16.4,8.5555555 H 13.864 L 12.4,7 Z M 10,18.666667 c -2.2079999,0 -3.9999999,-1.742223 -3.9999999,-3.888889 0,-2.146667 1.792,-3.888889 3.9999999,-3.888889 2.208,0 4,1.742222 4,3.888889 0,2.146666 -1.792,3.888889 -4,3.888889 z"
     id="path921"
     inkscape:connector-curvature="0"
     style="stroke-width:0.78881067" />
  <path
     d="M0 0h24v24H0z"
     fill="none"
     id="path923" />
  <path
     style="fill:none;stroke:#000000;stroke-width:1.01340806;stroke-linecap:square;stroke-miterlimit:4;stroke-dasharray:none;stroke-opacity:1"
     d="M 6.5067041,3.7013741 V 2.506704 H 21.493296 v 11.986592 h -1.326113"
     id="rect933"
     inkscape:connector-curvature="0"
     sodipodi:nodetypes="ccccc" />
  <path
     style="fill:none;stroke:#000000;stroke-width:1.01340806;stroke-linecap:square;stroke-miterlimit:4;stroke-dasharray:none;stroke-opacity:1"
     d="m 4.506704,10 0,-5.493296 h 14.986592 v 11.986592 h -2.614102"
     id="rect933-8-3"
     inkscape:connector-curvature="0"
     sodipodi:nodetypes="ccccc" />
</svg>
