<svg fill="#000000" height="24" viewBox="0 0 24 24" width="24" xmlns="http://www.w3.org/2000/svg">
  <path
     d="M 20.003906 1.6914062 A 2.3135593 2.3135593 0 0 0 18.224609 2.5273438 L 5.7714844 2.5273438 A 2.3135593 2.3135593 0 0 0 4.0039062 1.703125 A 2.3135593 2.3135593 0 0 0 1.6914062 4.0175781 A 2.3135593 2.3135593 0 0 0 2.5253906 5.796875 L 2.5253906 19.203125 A 2.3135593 2.3135593 0 0 0 1.6914062 20.980469 A 2.3135593 2.3135593 0 0 0 4.0039062 23.292969 A 2.3135593 2.3135593 0 0 0 5.7382812 22.509766 L 18.251953 22.509766 A 2.3135593 2.3135593 0 0 0 20.007812 23.324219 A 2.3135593 2.3135593 0 0 0 22.322266 21.009766 A 2.3135593 2.3135593 0 0 0 21.517578 19.255859 L 21.517578 5.75 A 2.3135593 2.3135593 0 0 0 22.316406 4.0058594 A 2.3135593 2.3135593 0 0 0 20.003906 1.6914062 z M 5.7617188 5.5195312 L 18.257812 5.5195312 A 2.3135593 2.3135593 0 0 0 18.525391 5.7851562 L 18.525391 19.236328 A 2.3135593 2.3135593 0 0 0 18.240234 19.517578 L 5.7949219 19.517578 A 2.3135593 2.3135593 0 0 0 5.5175781 19.232422 L 5.5175781 5.7617188 A 2.3135593 2.3135593 0 0 0 5.7617188 5.5195312 z "/>
</svg>
