<svg fill="#000000" height="24" viewBox="0 0 24 24" width="24" xmlns="http://www.w3.org/2000/svg">
  <g>
    <path
       d="m 11.603847,3.295105 0,1.6809082 -1.933594,0 q -1.0876464,0 -1.5161132,0.4394531 -0.4174805,0.4394531 -0.4174805,1.5820313 l 0,1.0876464 3.3288577,0 0,1.571045 -3.3288577,0 0,10.733643 -2.0324707,0 0,-10.733643 -1.9335938,0 0,-1.571045 1.9335938,0 0,-0.8569336 q 0,-2.0544433 0.9558105,-2.9882812 Q 7.6158097,3.295105 9.6922257,3.295105 l 1.9116213,0 z"/>
  </g>
  <g>
    <path
       d="m 18.909577,10.870365 -3.460693,4.656983 3.640137,4.91333 -1.854248,0 -2.785645,-3.759766 -2.785644,3.759766 -1.8542484,0 3.7170414,-5.007325 -3.400879,-4.562988 1.854248,0 2.537842,3.409424 2.537841,-3.409424 1.854248,0 z"/>
  </g>
</svg>
