<svg fill="#000000" height="24" viewBox="0 0 24 24" width="24" xmlns="http://www.w3.org/2000/svg">
  <circle
     cx="7.2628241"
     cy="5.375526"
     r="1.3075795" />
  <circle
     cx="4.8179135"
     cy="14.364173"
     r="1.3075795" />
  <circle
     cx="11.68524"
     cy="19.038267"
     r="1.3075795" />
  <circle
     cx="10.462784"
     cy="11.775442"
     r="1.3075795" />
  <circle
     cx="19.019974"
     cy="16.952902"
     r="1.3075795" />
  <circle
     cx="18.98402"
     cy="6.9934826"
     r="1.3075795" />
  <path d="m 6.5458023,4.6690281 -2.3797867,9.0848779 0.2572129,1.192546 6.6728185,4.7369 1.472312,-0.109133 6.326172,-1.728516 0.790217,-0.972185 L 19.837492,7.2155697 18.976562,6.1660156 7.6054688,4.3007812 Z m 1.8545883,1.2821438 8.4335934,1.3847656 -6.15039,3.3535155 z M 7.3164062,7.15625 9.3417969,11.361328 5.90625,12.949219 Z m 11.0117188,1.0722656 -0.08008,7.4726564 -6.447266,-3.91211 z m -8.5683594,4.5917964 0.9140624,4.81836 -4.4726561,-3.171875 z m 1.6171874,0.466797 5.748047,3.486329 -4.837891,1.322265 z"/>
</svg>
