<svg fill="#000000" height="24" viewBox="0 0 24 24" width="24" xmlns="http://www.w3.org/2000/svg">
  <path
     d="M 4.0058594 1.6835938 A 2.3135593 2.3135593 0 0 0 1.6914062 3.9960938 A 2.3135593 2.3135593 0 0 0 2.5273438 5.7753906 L 2.5273438 18.228516 A 2.3135593 2.3135593 0 0 0 1.703125 19.996094 A 2.3135593 2.3135593 0 0 0 4.0175781 22.308594 A 2.3135593 2.3135593 0 0 0 6.3300781 19.996094 A 2.3135593 2.3135593 0 0 0 5.5195312 18.238281 L 5.5195312 5.7421875 A 2.3135593 2.3135593 0 0 0 6.3183594 3.9960938 A 2.3135593 2.3135593 0 0 0 4.0058594 1.6835938 z M 7 3 L 7 5 L 9 5 L 9 3 L 7 3 z M 11 3 L 11 5 L 13 5 L 13 3 L 11 3 z M 15 3 L 15 5 L 17 5 L 17 3 L 15 3 z M 19 3 L 19 5 L 21 5 L 21 3 L 19 3 z M 19 7 L 19 9 L 21 9 L 21 7 L 19 7 z M 19 11 L 19 13 L 21 13 L 21 11 L 19 11 z M 19 15 L 19 17 L 21 17 L 21 15 L 19 15 z M 7 19 L 7 21 L 9 21 L 9 19 L 7 19 z M 11 19 L 11 21 L 13 21 L 13 19 L 11 19 z M 15 19 L 15 21 L 17 21 L 17 19 L 15 19 z M 19 19 L 19 21 L 21 21 L 21 19 L 19 19 z "/>
</svg>
