<?xml version="1.0" encoding="UTF-8" standalone="no"?>
<svg
   xmlns:dc="http://purl.org/dc/elements/1.1/"
   xmlns:cc="http://creativecommons.org/ns#"
   xmlns:rdf="http://www.w3.org/1999/02/22-rdf-syntax-ns#"
   xmlns:svg="http://www.w3.org/2000/svg"
   xmlns="http://www.w3.org/2000/svg"
   id="svg4556"
   version="1.1"
   width="24"
   viewBox="0 0 24 24"
   height="24"
   fill="#000000">
  <metadata
     id="metadata4562">
    <rdf:RDF>
      <cc:Work
         rdf:about="">
        <dc:format>image/svg+xml</dc:format>
        <dc:type
           rdf:resource="http://purl.org/dc/dcmitype/StillImage" />
        <dc:title></dc:title>
      </cc:Work>
    </rdf:RDF>
  </metadata>
  <defs
     id="defs4560" />
  <path
     id="path4554"
     d="M 6.4160156 2.0292969 L 6.4160156 2.0351562 L 1.9433594 6.4628906 L 1.9472656 6.4667969 L 1.9472656 7.4375 L 1.9472656 22.445312 L 18.009766 22.445312 L 18.009766 22.412109 L 22.433594 18.013672 L 22.478516 18.013672 L 22.478516 2.0292969 L 6.4160156 2.0292969 z M 8.3730469 3.984375 L 19.091797 3.984375 L 16.583984 6.4609375 L 8.3730469 6.4609375 L 8.3730469 3.984375 z M 6.4160156 4.7871094 L 6.4160156 6.4609375 L 4.7265625 6.4609375 L 6.4160156 4.7871094 z M 20.521484 5.3222656 L 20.521484 16.058594 L 18.009766 16.058594 L 18.009766 7.8027344 L 20.521484 5.3222656 z M 3.9042969 8.4160156 L 6.4160156 8.4160156 L 6.4160156 16.675781 L 3.9042969 19.138672 L 3.9042969 8.4160156 z M 8.3730469 8.4160156 L 16.052734 8.4160156 L 16.052734 16.058594 L 8.3730469 16.058594 L 8.3730469 8.4160156 z M 7.8457031 18.013672 L 16.052734 18.013672 L 16.052734 20.490234 L 5.3203125 20.490234 L 7.8457031 18.013672 z M 18.009766 18.013672 L 19.658203 18.013672 L 18.009766 19.654297 L 18.009766 18.013672 z " />
  <path
     id="path4566"
     d="M 11,7.588024 V 21.499401"
     style="fill:none;stroke:#000000;stroke-width:2;stroke-linecap:butt;stroke-linejoin:miter;stroke-opacity:1;stroke-miterlimit:4;stroke-dasharray:2,2;stroke-dashoffset:0" />
  <path
     id="path4568"
     d="M 3,14 H 17"
     style="fill:none;stroke:#000000;stroke-width:2;stroke-linecap:butt;stroke-linejoin:miter;stroke-opacity:1;stroke-miterlimit:4;stroke-dasharray:2,2;stroke-dashoffset:0" />
  <path
     style="fill:none;stroke:#000000;stroke-width:2;stroke-linecap:butt;stroke-linejoin:miter;stroke-opacity:1;stroke-miterlimit:4;stroke-dasharray:2,2;stroke-dashoffset:0"
     d="M 3,14 H 17"
     id="path4579" />
  <path
     id="path4612"
     d="m 21,10 -5,5"
     style="fill:none;stroke:#000000;stroke-width:2;stroke-linecap:butt;stroke-linejoin:miter;stroke-miterlimit:4;stroke-dasharray:2, 2;stroke-dashoffset:0;stroke-opacity:1" />
  <path
     id="path4612-8"
     d="M 15,3 10,8"
     style="fill:none;stroke:#000000;stroke-width:2;stroke-linecap:butt;stroke-linejoin:miter;stroke-miterlimit:4;stroke-dasharray:2, 2;stroke-dashoffset:0;stroke-opacity:1" />
</svg>
