<?xml version="1.0" encoding="UTF-8" standalone="no"?>
<svg
   xmlns="http://www.w3.org/2000/svg"
   fill="#000000"
   height="24"
   viewBox="0 0 24 24"
   width="24"
   id="svg2">
  <path d="M 8.0429688,3.0175781 2.9941406,7.9804688 3,21 16.0059,20.9961 21.019572,16.023444 21.017572,3.0351622 Z M 17.550781,5.0351562 14.585938,8 10,8 l 0,-0.9628906 -2,0 L 8,8 5.8261719,8 8,5.8632812 7.99822,6.0371094 l 2.001783,0 0.0084,-1.0024213 7.542396,4.681e-4 z m 1.466797,1.3613282 0,8.8375456 L 16,18.185547 16,16 16,13.847232 16,9.4140625 Z M 5,10 c 3.2081352,0.01778 5.762934,0 9,0 l 0,4 -0.962891,0 0,2 L 14,16 14,19 6.3730469,19 6.5795942,18.818946 5.1757812,17.376953 5,17.596304 Z m 3,1.037109 0,1 2,0 0,-1 z m 0,2 0.00659,1.608312 -0.6745558,0.645595 1.390625,1.439453 0.71875,-0.695313 0.5957028,-0.28977 L 10,13.033671 Z M 11.037109,14 l 0,2 1,0 0,-2 z m 6,0 0,2 1,0 0,-2 z m -10.4238278,1.986328 -0.71875,0.695313 1.3886719,1.4375 0.7207031,-0.695313 z"/>
</svg>
