<?xml version="1.0" encoding="UTF-8" standalone="no"?>
<svg
   xmlns="http://www.w3.org/2000/svg"
   fill="#000000"
   height="24"
   viewBox="0 0 24 24"
   width="24"
   id="svg2">
  <path d="M 13.007812,2.9980469 3,8.0039063 3,21 16.020249,21 c 0,0 3.356139,-6.757742 4.983657,-10.027344 L 21,3 Z M 13.474609,5 l 4.111329,0 -3,3 L 14,8 l 0,-0.5039062 -2,0 L 12,8 7.4667969,8 12,5.7363281 l 0,0.7597657 2,0 0,-1 -1.519531,0 z M 19,6.4140625 l 0,4.0957035 -0.503906,1.013672 0,-1.523438 -1,0 0,2 0.761718,0 L 16,16.539062 16,12 l 0.496094,0 0,-2 L 16,10 16,9.4140625 Z M 5,10 l 7,0 0,0.496094 -0.230468,0.304687 1.416016,1.41211 0.310547,-0.212887 L 14,12 14,19 6.4121094,19 6.8261719,18.583984 5.4121094,17.169922 5,17.583984 Z m 6.0625,1.507812 -0.705078,0.708985 1.414062,1.412109 0.707032,-0.707031 z m -1.4121094,1.416016 -0.7070312,0.707031 1.4160156,1.414063 0.707031,-0.708984 z M 8.2382812,14.339844 7.53125,15.046875 8.9472656,16.458984 9.6523438,15.751953 Z M 6.8242188,15.753906 6.1171875,16.462891 7.5332031,17.875 8.2402344,17.167969 Z"/>
</svg>
