<?xml version="1.0" encoding="UTF-8" standalone="no"?>
<svg
   xmlns="http://www.w3.org/2000/svg"
   fill="#000000"
   height="24"
   viewBox="0 0 24 24"
   width="24">
  <circle
     cx="9.5639172"
     cy="12.638351"
     r="1.3075795" />
  <circle
     cx="6.2201424"
     cy="14.328218"
     r="1.3075795" />
  <circle
     cx="11.181875"
     cy="15.119218"
     r="1.3075795" />
  <circle
     cx="14.66947"
     cy="15.011354"
     r="1.3075795" />
  <circle
     cx="12.799831"
     cy="11.703533"
     r="1.3075795" />
  <circle
     cx="18.121109"
     cy="14.292263"
     r="1.3075795" />
  <circle
     cx="15.604289"
     cy="9.9058037"
     r="1.3075795" />
  <path d="M 9.9,8.8 C 8.57,8.1 6.2,9.39 5.75,11.1 c -3.6,0.11 -5.06,3.73 -2.2,7.03 l 16.5,0 C 22.07,15.41 21.94,13.44 19.59,11.39 18.3,5.5 13.2,4.67 9.91,8.8 Z m 8.76,3.09 c 1.99,1.92 2.45,3.13 0.86,5.24 l -15.61,0 C 1.84,14.2 3.3,12 6.41,12 7.25,9.84 8.73,9.25 10.36,9.8 14.1,5.27 17.6,7.35 18.7,11.9 Z"/>
</svg>
