<svg fill="#000000" height="24" viewBox="0 0 24 24" width="24" xmlns="http://www.w3.org/2000/svg">
  <path d="M 13,3 C 8.03,3 4,7.03 4,12 L 1,12 4.890625,15.890625 4.960937,16.029297 9,12 6,12 c 0,-3.87 3.13,-7 7,-7 3.87,0 7,3.13 7,7 0,3.87 -3.13,7 -7,7 -1.93,0 -3.6794531,-0.790547 -4.9394531,-2.060547 L 6.640625,18.359375 C 8.270625,19.989375 10.51,21 13,21 c 4.97,0 9,-4.03 9,-9 0,-4.97 -4.03,-9 -9,-9 z m -1.410156,4.0429688 -0.550782,0.5507812 -1.929687,0 0,1.1015625 7.712891,0 0,-1.1015625 -1.927735,0 -0.550781,-0.5507812 -2.753906,0 z m -1.9296878,2.6425781 0,6.1699221 c 0,0.605932 0.4975838,1.101562 1.1035158,1.101562 l 4.40625,0 c 0.605932,0 1.101562,-0.49563 1.101562,-1.101562 l 0,-6.1699221 -6.6113278,0 z" />
</svg>
