<?xml version="1.0" encoding="UTF-8" standalone="no"?>
<svg
   xmlns="http://www.w3.org/2000/svg"
   fill="#000000"
   height="24"
   viewBox="0 0 24 24"
   width="24">
  <g
     style="fill:#000000"
     id="g6045"
     transform="matrix(0,1,-1,0,24,0)">
    <path
       id="path6035"
       d="M 0,0 24,0 24,24 0,24 Z"
       inkscape:connector-curvature="0"
       style="fill:none" />
    <path
       id="path6037"
       d="M 13,3 C 8.03,3 4,7.03 4,12 L 1,12 4.89,15.89 4.96,16.03 9,12 6,12 c 0,-3.87 3.13,-7 7,-7 3.87,0 7,3.13 7,7 0,3.87 -3.13,7 -7,7 0,0.843855 0,0.63106 0,2 4.97,0 9,-4.03 9,-9 0,-4.97 -4.03,-9 -9,-9 z"
       inkscape:connector-curvature="0"
       sodipodi:nodetypes="sccccccssccss" />
  </g>
</svg>
