<svg fill="#000000" height="24" viewBox="0 0 24 24" width="24" xmlns="http://www.w3.org/2000/svg">
  <path
     d="M 19.982422 1.6914062 A 2.3135593 2.3135593 0 0 0 17.669922 4.0039062 A 2.3135593 2.3135593 0 0 0 18.480469 5.7617188 L 18.480469 18.257812 A 2.3135593 2.3135593 0 0 0 17.681641 20.003906 A 2.3135593 2.3135593 0 0 0 19.994141 22.316406 A 2.3135593 2.3135593 0 0 0 22.308594 20.003906 A 2.3135593 2.3135593 0 0 0 21.472656 18.224609 L 21.472656 5.7714844 A 2.3135593 2.3135593 0 0 0 22.296875 4.0039062 A 2.3135593 2.3135593 0 0 0 19.982422 1.6914062 z M 3 3 L 3 5 L 5 5 L 5 3 L 3 3 z M 7 3 L 7 5 L 9 5 L 9 3 L 7 3 z M 11 3 L 11 5 L 13 5 L 13 3 L 11 3 z M 15 3 L 15 5 L 17 5 L 17 3 L 15 3 z M 3 7 L 3 9 L 5 9 L 5 7 L 3 7 z M 3 11 L 3 13 L 5 13 L 5 11 L 3 11 z M 3 15 L 3 17 L 5 17 L 5 15 L 3 15 z M 3 19 L 3 21 L 5 21 L 5 19 L 3 19 z M 7 19 L 7 21 L 9 21 L 9 19 L 7 19 z M 11 19 L 11 21 L 13 21 L 13 19 L 11 19 z M 15 19 L 15 21 L 17 21 L 17 19 L 15 19 z "/>
</svg>
