<?xml version="1.0" encoding="UTF-8" standalone="no"?>
<svg
   xmlns="http://www.w3.org/2000/svg"
   fill="#000000"
   height="24"
   viewBox="0 0 24 24"
   width="24"
   id="svg3626">
  <path d="m 7.75,10.335938 c -1.4041016,0 -2.7563615,0.548168 -3.8730469,1.048828 -0.5583426,0.250329 -1.055911,0.496102 -1.4296875,0.667968 -0.3737764,0.171866 -0.2004912,0.08694 -0.4589844,0.214844 l 0.03125,2 c 0.6382792,-0.01017 0.8473923,-0.205075 1.2636719,-0.396484 0.4162796,-0.19141 0.8959774,-0.428752 1.4121094,-0.660156 1.0322641,-0.46281 2.2237933,-0.875 3.0546875,-0.875 1.3907409,0 2.621529,0.414587 3.978516,0.884765 1.356987,0.470178 2.838984,0.996094 4.613281,0.996094 1.600268,0 2.9918,-0.505608 4.041015,-0.978516 0.524608,-0.236454 0.977681,-0.447049 1.289063,-0.623047 0.314453,-0.177734 0.143166,-0.06836 0.314453,-0.177734 l 0,-2 c -0.634121,0 -0.829747,0.202224 -1.191406,0.378906 -0.361659,0.176683 -0.771873,0.391148 -1.234375,0.59961 -0.925005,0.416923 -2.046394,0.800781 -3.21875,0.800781 -1.376187,0 -2.601069,-0.414266 -3.958985,-0.884766 C 11.024897,10.861531 9.5356084,10.335938 7.75,10.335938 Z"/>
</svg>
