<?xml version="1.0" encoding="UTF-8" standalone="no"?>
<svg
   xmlns="http://www.w3.org/2000/svg"
   fill="#000000"
   height="24"
   viewBox="0 0 24 24"
   width="24">
  <path d="m 7.75,3.7792969 c -1.4,0 -2.76,0.55 -3.87,1.05 C 3.3186104,5.0804078 2.8210422,5.3242277 2.4472656,5.4960938 2.0734891,5.6679598 1.6803694,5.7177982 1.9882812,5.7128906 l 0.03125,1.9980469 C 2.6578091,7.7007645 2.8669236,7.5058625 3.2832031,7.3144531 3.6994826,7.1230438 4.1791805,6.8857017 4.6953125,6.6542969 c 1.032264,-0.4628096 2.223793,-0.875 3.0546875,-0.875 1.390741,0 2.621529,0.4165406 3.978516,0.8867187 1.356986,0.4701782 2.838984,0.9941407 4.613281,0.9941406 1.600268,0 2.9918,-0.5036548 4.041015,-0.9765624 0.524608,-0.2364539 0.967685,-0.4679962 1.289063,-0.625 0.321378,-0.1570039 0.63926,-0.1777344 0.314453,-0.1777344 l 0,-2 c -0.634121,0 -0.829747,0.2041767 -1.191406,0.3808594 -0.361659,0.1766826 -0.771873,0.3891948 -1.234375,0.5976562 -0.925005,0.4169229 -2.046394,0.8007813 -3.21875,0.8007812 -1.376187,0 -2.601069,-0.4142658 -3.958985,-0.8847656 C 11.024897,4.3048908 9.5356086,3.7792969 7.75,3.7792969 Z"/>
  <path d="m 7.75,10.335938 c -1.4,0 -2.76,0.55 -3.87,1.05 -0.5583426,0.250329 -1.055911,0.496102 -1.4296875,0.667968 -0.3737764,0.171866 -0.7668975,0.219751 -0.4589844,0.214844 l 0.03125,2 c 0.6382792,-0.01017 0.8473923,-0.205075 1.2636719,-0.396484 0.4162796,-0.19141 0.8959774,-0.428752 1.4121094,-0.660156 1.0322641,-0.46281 2.2237933,-0.875 3.0546875,-0.875 1.3907409,0 2.621529,0.414587 3.978516,0.884765 1.356987,0.470178 2.838984,0.996094 4.613281,0.996094 1.600268,0 2.9918,-0.505608 4.041015,-0.978516 0.524608,-0.236454 0.967685,-0.466043 1.289063,-0.623047 0.321378,-0.157003 0.63926,-0.177734 0.314453,-0.177734 l 0,-2 c -0.634121,0 -0.829747,0.202224 -1.191406,0.378906 -0.361659,0.176683 -0.771873,0.391148 -1.234375,0.59961 -0.925005,0.416923 -2.046394,0.800781 -3.21875,0.800781 -1.376187,0 -2.601069,-0.414266 -3.958985,-0.884766 C 11.024897,10.861531 9.5356084,10.335938 7.75,10.335938 Z"/>
  <path d="m 7.75,16.892578 c -1.4,0 -2.76,0.55 -3.87,1.05 -0.5583426,0.25033 -1.055911,0.496103 -1.4296875,0.667969 -0.3737764,0.171866 -0.7668975,0.219751 -0.4589844,0.214844 l 0.03125,2 c 0.6382792,-0.01017 0.8473923,-0.205075 1.2636719,-0.396485 0.4162796,-0.191409 0.8959774,-0.428751 1.4121094,-0.660156 1.0322641,-0.46281 2.2237933,-0.875 3.0546875,-0.875 1.3907409,0 2.621529,0.414588 3.978516,0.884766 1.356987,0.470178 2.838984,0.996094 4.613281,0.996094 1.600268,0 2.9918,-0.505609 4.041015,-0.978516 0.524608,-0.236454 0.967685,-0.467996 1.289063,-0.625 0.321378,-0.157004 0.63926,-0.175781 0.314453,-0.175781 l 0,-2 c -0.634121,0 -0.829747,0.202223 -1.191406,0.378906 -0.361659,0.176683 -0.771873,0.391148 -1.234375,0.599609 -0.925005,0.416923 -2.046394,0.800782 -3.21875,0.800782 -1.376187,0 -2.601069,-0.414266 -3.958985,-0.884766 C 11.024897,17.418172 9.5356085,16.892578 7.75,16.892578 Z"/>
</svg>
