<svg fill="#000000" height="24" viewBox="0 0 24 24" width="24" xmlns="http://www.w3.org/2000/svg">
  <path
     d="M 20.003906 1.6914062 A 2.3135593 2.3135593 0 0 0 18.224609 2.5273438 L 5.7714844 2.5273438 A 2.3135593 2.3135593 0 0 0 4.0039062 1.703125 A 2.3135593 2.3135593 0 0 0 1.6914062 4.0175781 A 2.3135593 2.3135593 0 0 0 4.0039062 6.3300781 A 2.3135593 2.3135593 0 0 0 5.7617188 5.5195312 L 18.257812 5.5195312 A 2.3135593 2.3135593 0 0 0 20.003906 6.3183594 A 2.3135593 2.3135593 0 0 0 22.316406 4.0058594 A 2.3135593 2.3135593 0 0 0 20.003906 1.6914062 z M 3 7 L 3 9 L 5 9 L 5 7 L 3 7 z M 19 7 L 19 9 L 21 9 L 21 7 L 19 7 z M 3 11 L 3 13 L 5 13 L 5 11 L 3 11 z M 19 11 L 19 13 L 21 13 L 21 11 L 19 11 z M 3 15 L 3 17 L 5 17 L 5 15 L 3 15 z M 19 15 L 19 17 L 21 17 L 21 15 L 19 15 z M 3 19 L 3 21 L 5 21 L 5 19 L 3 19 z M 7 19 L 7 21 L 9 21 L 9 19 L 7 19 z M 11 19 L 11 21 L 13 21 L 13 19 L 11 19 z M 15 19 L 15 21 L 17 21 L 17 19 L 15 19 z M 19 19 L 19 21 L 21 21 L 21 19 L 19 19 z "/>
</svg>
