<?xml version="1.0" encoding="UTF-8" standalone="no"?>
<svg
   xmlns="http://www.w3.org/2000/svg"
   fill="#000000"
   height="24"
   viewBox="0 0 24 24"
   width="24">
  <path d="m 19.471617,12.483451 c 0,0.775779 -1.164485,2.105526 -2.056297,2.110299 0.891812,0 2.056297,1.441377 2.056297,2.110299 0,-0.668922 1.27937,-2.110299 2.056297,-2.110299 -0.776927,0 -2.056297,-1.33452 -2.056297,-2.110299 z"/>
  <path d="m 14.284117,2.5147012 c 0,0.7757788 -1.164485,2.1055259 -2.056297,2.110299 0.891812,0 2.056297,1.4413765 2.056297,2.1102988 0,-0.6689223 1.27937,-2.1102988 2.056297,-2.1102988 -0.776927,0 -2.056297,-1.3345202 -2.056297,-2.110299 z"/>
  <path d="m 13.789062,10.564453 -9.148437,9.148438 1.4140625,1.414062 9.1484375,-9.148437 -1.414063,-1.414063 z"/>
  <path d="M 18.916016,5.5703125 16.351562,8.1347656 17.765625,9.5488281 20.330078,6.984375 18.916016,5.5703125 Z"/>
  <path d="M 7.9059806,4.1867664 C 7.9059806,5.4565287 6,7.633003 4.5403198,7.6408155 6,7.6408155 7.9059806,10 7.9059806,11.094864 7.9059806,10 10,7.6408155 11.271642,7.6408155 10,7.6408155 7.9059806,5.4565287 7.9059806,4.1867664 Z"/>
</svg>
