<?xml version="1.0" encoding="UTF-8" standalone="no"?>
<svg
   xmlns="http://www.w3.org/2000/svg"
   fill="#000000"
   height="24"
   viewBox="0 0 24 24"
   width="24">
  <path d="M 11.470578,16.957105 Q 11.071829,15.93546 10.466829,14.706023 9.8618284,13.476585 9.2018284,12.333728 8.9268281,12.783945 8.5968282,13.407322 8.2805781,14.030698 7.9505781,14.688707 7.634328,15.329399 7.359328,15.93546 q -0.275,0.606061 -0.44,1.021645 l -1.9662503,0 Q 5.5718278,15.485243 6.3830779,13.944118 7.194328,12.385677 8.1430782,10.688707 l -3.0525005,-5.7316016 2.0625003,0 2.1037501,4.103896 2.0762509,-4.103896 1.98,0 -3.01125,5.7142856 q 1.044999,1.78355 1.8425,3.376623 0.81125,1.593074 1.36125,2.909091 l -2.035001,0 z" />
  <path d="m 18.288216,10.273123 q 0.61875,-1.2987017 1.21,-2.6320349 0.591251,-1.3333334 1.0725,-2.6839827 l 1.925,0 q -0.769999,1.8354978 -1.60875,3.6536796 -0.825,1.800866 -1.77375,3.636364 l 0,4.709956 -1.7325,0 0,-4.675325 q -0.94875,-1.852813 -1.7875,-3.670995 -0.838751,-1.8181818 -1.608751,-3.6536796 l 2.035001,0 q 0.48125,1.3506493 1.05875,2.6839827 0.5775,1.3333332 1.21,2.6320349 z" />
  <path d="m 2.25,2 0,19.75 19.75,0 0,-1.5 -18.25,0 0,-18.25 -1.5,0 z"/>
</svg>
