<?xml version="1.0" encoding="UTF-8" standalone="no"?>
<svg
   xmlns="http://www.w3.org/2000/svg"
   fill="#000000"
   height="24"
   viewBox="0 0 24 24"
   width="24"
   >
  <path d="M 11.470578,16.957105 Q 11.071829,15.93546 10.466829,14.706023 9.8618284,13.476585 9.2018284,12.333728 8.9268281,12.783945 8.5968282,13.407322 8.2805781,14.030698 7.9505781,14.688707 7.634328,15.329399 7.359328,15.93546 q -0.275,0.606061 -0.44,1.021645 l -1.9662503,0 Q 5.5718278,15.485243 6.3830779,13.944118 7.194328,12.385677 8.1430782,10.688707 l -3.0525005,-5.7316016 2.0625003,0 2.1037501,4.103896 2.0762509,-4.103896 1.98,0 -3.01125,5.7142856 q 1.044999,1.78355 1.8425,3.376623 0.81125,1.593074 1.36125,2.909091 l -2.035001,0 z" />
  <path d="m 21.3289,6.567495 q -0.45375,0.6233766 -1.1,1.6277056 -0.64625,0.987013 -1.333751,2.1645024 -0.687499,1.160172 -1.361249,2.406927 -0.66,1.229436 -1.168751,2.337661 l 5.115001,0 0,1.852814 -7.205001,0 0,-1.367965 q 0.275,-0.640693 0.6325,-1.385282 0.37125,-0.761904 0.78375,-1.558441 0.4125,-0.796537 0.852501,-1.61039 0.45375,-0.813852 0.89375,-1.5584411 0.439999,-0.7619048 0.8525,-1.4372294 0.42625,-0.6926408 0.7975,-1.2294373 l -4.578751,0 0,-1.8528138 6.820001,0 0,1.6103896 z" />
  <path d="m 2.25,2 0,19.75 19.75,0 0,-1.5 -18.25,0 0,-18.25 -1.5,0 z"/>
</svg>
