<?xml version="1.0" encoding="UTF-8" standalone="no"?>
<svg
   xmlns="http://www.w3.org/2000/svg"
   fill="#000000"
   height="24"
   viewBox="0 0 24 24"
   width="24">
  <path d="M 9.0230778,10.273123 C 9.8394439,8.5407294 10.654803,6.800482 11.305578,4.9571054 c 0.641668,0 1.283334,0 1.925001,0 -1.047558,2.4867891 -2.160816,4.9318103 -3.3825003,7.2900436 0,1.569986 0,3.139971 0,4.709956 -0.5775,0 -1.1550005,0 -1.7325006,0 0,-1.558441 0,-3.116883 0,-4.675325 C 6.8964262,9.9063868 5.7689784,7.4572961 4.7193277,4.9571054 c 0.6783334,0 1.3566668,0 2.0350002,0 0.6525087,1.8386091 1.4364486,3.5981945 2.2687499,5.3160176 z M 20.872358,6.567495 c -1.849834,2.6516839 -3.528406,5.503874 -4.963751,8.536796 1.705,0 3.41,0 5.115001,0 0,0.617605 0,1.235209 0,1.852814 -2.401668,0 -4.803334,0 -7.205001,0 0.04451,-0.63004 -0.139296,-1.334938 0.217851,-1.863095 1.353277,-2.907828 2.884631,-5.6908055 4.594649,-8.2840908 -1.52625,0 -3.0525,0 -4.578751,0 0,-0.6176046 0,-1.2352092 0,-1.8528138 2.273334,0 4.546668,0 6.820002,0 0,0.5367965 0,1.073593 0,1.6103896 z"/>
  <path d="m 2.25,2 0,19.75 19.75,0 0,-1.5 -18.25,0 0,-18.25 -1.5,0 z"/>
</svg>
